<?xml version="1.0" standalone="no"?>
<!DOCTYPE svg PUBLIC "-//W3C//DTD SVG 20010904//EN"
 "http://www.w3.org/TR/2001/REC-SVG-20010904/DTD/svg10.dtd">
<svg version="1.0" xmlns="http://www.w3.org/2000/svg"
 width="673.000000pt" height="696.000000pt" viewBox="0 0 673.000000 696.000000"
 preserveAspectRatio="xMidYMid meet">

<g transform="translate(0.000000,696.000000) scale(0.100000,-0.100000)"
fill="#000000" stroke="none">
<path d="M1195 6915 c-453 -76 -824 -350 -1027 -761 -76 -152 -117 -290 -138
-455 -8 -69 -10 -642 -8 -2139 4 -2036 4 -2045 25 -2135 25 -108 63 -220 107
-318 196 -429 625 -733 1111 -787 71 -8 685 -10 2130 -8 l2030 4 99 22 c136
32 203 55 331 117 354 171 618 486 730 871 56 194 55 119 55 2299 0 2168 2
2057 -51 2267 -59 236 -190 459 -375 640 -209 205 -467 334 -769 383 -128 21
-4125 21 -4250 0z m3840 -1944 c55 -25 91 -70 104 -131 14 -66 14 -394 0 -460
-12 -57 -52 -110 -103 -138 -29 -16 -149 -17 -1707 -17 l-1676 0 -48 30 c-88
54 -90 62 -90 350 0 270 2 283 58 336 53 51 -35 48 1752 48 1599 1 1672 0
1710 -18z m-884 -996 c75 -53 83 -81 88 -305 4 -234 -7 -310 -51 -364 -63 -77
51 -71 -1308 -71 l-1215 0 -48 24 c-30 15 -58 39 -75 64 l-27 40 -3 233 c-2
148 1 247 8 273 13 49 62 109 105 127 24 11 258 13 1257 11 l1226 -2 43 -30z
m884 -974 c55 -25 91 -70 104 -131 14 -66 14 -394 0 -460 -12 -57 -52 -110
-103 -138 -29 -16 -149 -17 -1707 -17 l-1676 0 -48 30 c-88 54 -90 62 -90 350
0 270 2 283 58 336 53 51 -35 48 1752 48 1599 1 1672 0 1710 -18z"/>
</g>
</svg>
